<?xml version="1.0" encoding="utf-8"?>
<!-- Generator: Adobe Illustrator 15.0.2, SVG Export Plug-In . SVG Version: 6.00 Build 0)  -->
<!DOCTYPE svg PUBLIC "-//W3C//DTD SVG 1.1//EN" "http://www.w3.org/Graphics/SVG/1.1/DTD/svg11.dtd">
<svg version="1.1" id="Layer_1" xmlns="http://www.w3.org/2000/svg" xmlns:xlink="http://www.w3.org/1999/xlink" x="0px" y="0px"
	 width="458.151px" height="439.838px" viewBox="0 0 458.151 439.838" enable-background="new 0 0 458.151 439.838"
	 xml:space="preserve">
<path fill="#FFFFFF" d="M227.21,2.167c41.372,0,130.213,27.188,171.235,212.37c7.928,35.82,10.258,71.137,10.131,76.824h24.101
	C390.318,64.481,304.491,0,227.21,0"/>
<path fill="#FFFFFF" d="M227.21,2.167c-41.384,0-130.236,27.188-171.249,212.37c-7.928,35.82-10.258,71.137-10.131,76.824H21.734
	C64.088,64.481,149.916,0,227.21,0"/>
<g>
	<path fill="#FFFFFF" d="M63.401,372.85c0-7.864-0.485-8.933-4.369-10.001c-0.777-0.194-2.427-0.291-3.301-0.291
		c-0.388,0-0.776-0.194-0.776-0.583c0-0.582,0.485-0.776,1.553-0.776c4.369,0,10.486,0.291,10.971,0.291
		c0.486,0,6.603-0.291,9.515-0.291c1.068,0,1.554,0.194,1.554,0.776c0,0.389-0.389,0.583-0.777,0.583
		c-0.68,0-1.262,0.097-2.427,0.291c-2.622,0.485-3.398,2.137-3.592,5.534c-0.194,3.107-0.194,6.02-0.194,10.098v10.874
		c0,4.369-0.097,4.563-1.262,5.243c-6.214,3.302-14.952,4.369-20.583,4.369c-7.379,0-21.166-0.971-31.943-10.389
		c-5.922-5.146-11.554-15.534-11.554-27.671c0-15.535,7.573-26.506,16.214-31.943c8.738-5.438,18.35-6.117,25.826-6.117
		c6.117,0,13.01,1.263,14.855,1.651c2.039,0.485,5.438,0.873,7.865,0.971c0.971,0.097,1.165,0.485,1.165,0.874
		c0,1.359-0.68,4.077-0.68,13.787c0,1.553-0.194,2.038-0.874,2.038c-0.485,0-0.583-0.582-0.68-1.456
		c-0.097-1.359-0.583-4.078-2.039-6.408c-2.427-3.689-10.292-7.864-22.817-7.864c-6.117,0-13.398,0.583-20.777,6.408
		c-5.631,4.466-9.612,13.302-9.612,24.661c0,13.69,6.894,23.594,10.292,26.895c7.67,7.476,16.505,10.389,25.438,10.389
		c3.495,0,8.544-0.583,11.068-2.039c1.262-0.68,1.942-1.747,1.942-3.398V372.85z"/>
	<path fill="#FFFFFF" d="M111.749,336.828c1.068-2.719,1.457-3.204,2.039-3.204c0.874,0,1.165,1.165,2.039,3.01
		c1.554,3.496,15.244,37.575,20.486,50.1c3.107,7.379,5.438,8.447,7.282,9.029c1.262,0.389,2.524,0.485,3.398,0.485
		c0.485,0,1.068,0.194,1.068,0.68s-0.971,0.68-1.941,0.68c-1.262,0-7.573,0-13.496-0.194c-1.65-0.097-3.01-0.097-3.01-0.582
		c0-0.389,0.194-0.389,0.583-0.583c0.485-0.193,1.359-0.873,0.777-2.232l-7.67-18.934c-0.194-0.388-0.291-0.485-0.777-0.485h-19.709
		c-0.388,0-0.68,0.194-0.874,0.68l-4.855,13.205c-0.776,2.038-1.262,4.077-1.262,5.534c0,1.65,1.457,2.232,2.913,2.232h0.777
		c0.679,0,0.874,0.292,0.874,0.68c0,0.485-0.485,0.68-1.262,0.68c-2.039,0-6.699-0.291-7.67-0.291c-0.874,0-5.146,0.291-8.641,0.291
		c-1.068,0-1.65-0.194-1.65-0.68c0-0.388,0.388-0.68,0.777-0.68c0.583,0,1.845-0.097,2.524-0.193
		c3.884-0.486,5.534-3.398,7.185-7.573L111.749,336.828z M121.264,371.199c0.388,0,0.388-0.194,0.291-0.583l-8.447-22.622
		c-0.486-1.263-0.971-1.263-1.457,0l-7.961,22.622c-0.097,0.389,0,0.583,0.291,0.583H121.264z"/>
	<path fill="#FFFFFF" d="M171.749,373.626c0,7.962,0,14.467,0.388,17.865c0.292,2.427,0.68,3.98,3.301,4.369
		c1.165,0.194,3.107,0.388,3.884,0.388c0.583,0,0.679,0.389,0.679,0.68c0,0.389-0.388,0.68-1.359,0.68
		c-4.661,0-10.098-0.291-10.583-0.291c-0.389,0-6.311,0.291-8.835,0.291c-0.971,0-1.359-0.194-1.359-0.68
		c0-0.291,0.194-0.582,0.68-0.582c0.777,0,1.748-0.194,2.524-0.389c1.748-0.389,2.233-2.039,2.524-4.466
		c0.388-3.398,0.388-9.903,0.388-17.865v-34.662l-12.331,0.194c-5.34,0.098-7.379,0.68-8.641,2.622
		c-0.971,1.456-1.068,2.039-1.359,2.621c-0.194,0.68-0.485,0.776-0.874,0.776c-0.194,0-0.583-0.193-0.583-0.68
		c0-0.873,1.748-8.252,1.845-8.932c0.194-0.485,0.583-1.554,0.874-1.554c0.583,0,1.457,0.68,3.787,0.971
		c2.427,0.291,5.729,0.389,6.699,0.389h32.234c2.816,0,4.758-0.194,6.117-0.389c1.262-0.194,2.039-0.389,2.427-0.389
		c0.388,0,0.388,0.486,0.388,0.972c0,2.524-0.291,8.446-0.291,9.418c0,0.68-0.389,1.067-0.777,1.067
		c-0.389,0-0.583-0.291-0.68-1.456l-0.097-0.874c-0.292-2.524-2.136-4.369-10.292-4.563l-10.68-0.194V373.626z"/>
	<path fill="#FFFFFF" d="M212.33,359.062c0-12.816,0-15.146-0.194-17.768c-0.194-2.816-0.68-4.176-3.495-4.563
		c-0.68-0.098-2.136-0.194-2.913-0.194c-0.291,0-0.68-0.389-0.68-0.68c0-0.485,0.389-0.68,1.359-0.68
		c3.884,0,9.418,0.194,9.903,0.194c0.583,0,18.448,0.097,20.39,0c1.65-0.098,3.203-0.389,3.883-0.485
		c0.389-0.098,0.777-0.389,1.165-0.389c0.292,0,0.389,0.389,0.389,0.776c0,0.583-0.485,1.554-0.68,3.884
		c-0.097,0.777-0.292,4.467-0.485,5.438c-0.098,0.389-0.389,0.874-0.777,0.874c-0.484,0-0.68-0.389-0.68-1.068
		c0-0.582-0.097-1.941-0.484-2.913c-0.583-1.358-1.457-1.941-6.117-2.524c-1.457-0.193-11.36-0.291-12.331-0.291
		c-0.389,0-0.486,0.291-0.486,0.874v22.428c0,0.583,0,0.874,0.486,0.874c1.068,0,12.331,0,14.272-0.194
		c2.039-0.193,3.301-0.291,4.176-1.165c0.582-0.582,0.971-1.067,1.262-1.067s0.485,0.194,0.485,0.68s-0.485,1.845-0.68,4.562
		c-0.194,1.651-0.388,4.758-0.388,5.341c0,0.68-0.195,1.553-0.777,1.553c-0.389,0-0.582-0.291-0.582-0.776
		c0-0.776,0-1.65-0.389-2.719c-0.291-1.165-1.068-2.136-4.369-2.524c-2.331-0.291-11.457-0.388-12.914-0.388
		c-0.485,0-0.583,0.291-0.583,0.582v6.894c0,2.815-0.097,12.428,0,14.078c0.194,5.534,1.748,6.603,10.195,6.603
		c2.233,0,6.311,0,8.543-0.874c2.234-0.971,3.398-2.427,3.885-5.729c0.193-0.971,0.388-1.262,0.873-1.262
		c0.486,0,0.583,0.68,0.583,1.262c0,0.583-0.68,6.214-1.165,7.962c-0.583,2.136-1.457,2.136-4.758,2.136
		c-6.408,0-11.36-0.194-14.855-0.291c-3.592-0.194-5.826-0.194-7.088-0.194c-0.194,0-1.845,0-3.689,0.097
		c-1.65,0.098-3.592,0.194-4.952,0.194c-0.874,0-1.359-0.194-1.359-0.68c0-0.291,0.194-0.68,0.68-0.68
		c0.777,0,1.845-0.291,2.622-0.388c1.65-0.292,1.845-1.942,2.233-4.369c0.485-3.398,0.485-9.903,0.485-17.865V359.062z"/>
	<path fill="#FFFFFF" d="M321.554,385.374h0.389c2.137-6.796,9.807-30.681,12.816-41.264c0.873-3.107,0.971-4.078,0.971-5.146
		c0-1.456-0.68-2.427-4.562-2.427c-0.486,0-0.777-0.485-0.777-0.776c0-0.389,0.389-0.583,1.457-0.583
		c4.369,0,7.961,0.194,8.738,0.194c0.582,0,4.271-0.194,6.893-0.194c0.777,0,1.166,0.194,1.166,0.485
		c0,0.389-0.195,0.874-0.777,0.874c-0.291,0-1.941,0.097-2.912,0.389c-2.525,0.873-3.885,4.175-5.535,8.738
		c-3.787,10.485-12.232,36.7-15.631,45.924c-2.234,6.117-2.719,7.088-3.689,7.088c-0.875,0-1.65-1.068-2.816-4.272l-16.699-45.147
		c-2.914,7.185-14.467,37.381-17.574,45.051c-1.457,3.495-2.039,4.369-3.01,4.369c-0.873,0-1.553-0.874-3.301-6.505l-15.146-48.935
		c-1.359-4.369-2.232-5.438-4.467-6.214c-1.164-0.389-3.301-0.485-3.883-0.485c-0.389,0-0.777-0.291-0.777-0.776
		c0-0.389,0.583-0.583,1.359-0.583c4.467,0,9.225,0.194,10.098,0.194c0.777,0,4.66-0.194,8.932-0.194
		c1.166,0,1.555,0.194,1.555,0.583c0,0.485-0.486,0.776-0.875,0.776c-0.68,0-2.039,0-3.01,0.485
		c-0.582,0.194-1.164,0.68-1.164,1.748c0,1.067,0.68,3.98,1.65,7.67c1.359,5.243,10.098,35.535,11.166,38.934h0.193l17.865-46.118
		c1.262-3.302,1.844-3.787,2.33-3.787c0.582,0,1.262,1.068,2.33,3.884L321.554,385.374z"/>
	<path fill="#FFFFFF" d="M370.581,336.828c1.068-2.719,1.457-3.204,2.039-3.204c0.875,0,1.166,1.165,2.039,3.01
		c1.553,3.496,15.244,37.575,20.486,50.1c3.107,7.379,5.438,8.447,7.281,9.029c1.264,0.389,2.525,0.485,3.398,0.485
		c0.486,0,1.068,0.194,1.068,0.68s-0.971,0.68-1.941,0.68c-1.262,0-7.574,0-13.496-0.194c-1.65-0.097-3.01-0.097-3.01-0.582
		c0-0.389,0.193-0.389,0.582-0.583c0.486-0.193,1.359-0.873,0.777-2.232l-7.67-18.934c-0.195-0.388-0.291-0.485-0.777-0.485h-19.709
		c-0.389,0-0.68,0.194-0.875,0.68l-4.854,13.205c-0.777,2.038-1.262,4.077-1.262,5.534c0,1.65,1.455,2.232,2.912,2.232h0.777
		c0.68,0,0.873,0.292,0.873,0.68c0,0.485-0.486,0.68-1.262,0.68c-2.039,0-6.699-0.291-7.67-0.291c-0.875,0-5.146,0.291-8.643,0.291
		c-1.066,0-1.65-0.194-1.65-0.68c0-0.388,0.389-0.68,0.777-0.68c0.582,0,1.844-0.097,2.523-0.193
		c3.885-0.486,5.535-3.398,7.186-7.573L370.581,336.828z M380.097,371.199c0.389,0,0.389-0.194,0.291-0.583l-8.447-22.622
		c-0.484-1.263-0.971-1.263-1.455,0l-7.963,22.622c-0.098,0.389,0,0.583,0.291,0.583H380.097z"/>
	<path fill="#FFFFFF" d="M423.397,376.15c0-4.466-0.584-6.117-1.846-8.447c-0.68-1.262-12.234-19.612-15.146-23.981
		c-2.039-3.106-4.078-4.951-5.631-6.02c-1.262-0.776-2.912-1.165-3.592-1.165c-0.486,0-0.875-0.389-0.875-0.776
		c0-0.389,0.291-0.583,1.068-0.583c1.65,0,8.059,0.194,8.447,0.194c0.582,0,4.078-0.194,7.379-0.194
		c0.971,0,1.164,0.194,1.164,0.583c0,0.291-0.582,0.582-1.359,0.873c-0.68,0.292-1.066,0.68-1.066,1.359
		c0,1.165,0.582,2.137,1.164,3.204l15.535,25.729c1.748-3.495,12.428-21.166,13.98-23.885c1.068-1.845,1.457-3.204,1.457-4.271
		c0-1.165-0.389-1.845-1.359-2.137c-0.777-0.194-1.262-0.582-1.262-0.971c0-0.291,0.484-0.485,1.359-0.485
		c2.232,0,5.242,0.194,5.922,0.194c0.582,0,6.699-0.194,8.35-0.194c0.584,0,1.068,0.194,1.068,0.485
		c0,0.389-0.389,0.874-1.068,0.874c-0.971,0-2.621,0.291-3.98,1.068c-1.65,0.971-2.428,1.845-4.271,4.077
		c-2.816,3.302-14.855,22.72-16.604,26.215c-1.455,2.913-1.068,5.534-1.068,8.253v7.088c0,1.359,0,4.854,0.293,8.253
		c0.193,2.427,0.775,3.98,3.301,4.369c1.164,0.194,3.105,0.388,3.883,0.388c0.486,0,0.68,0.389,0.68,0.68
		c0,0.389-0.484,0.68-1.359,0.68c-4.758,0-10.291-0.291-10.777-0.291c-0.389,0-5.824,0.291-8.35,0.291
		c-0.971,0-1.359-0.194-1.359-0.68c0-0.291,0.195-0.68,0.68-0.68c0.777,0,1.748-0.193,2.525-0.388
		c1.746-0.389,2.33-1.942,2.523-4.369c0.195-3.398,0.195-6.894,0.195-8.253V376.15z"/>
</g>
<path fill="#FFFFFF" d="M271.255,67.551v-8.019c-11.848,1.201-25.417,1.932-39.892,2.059c0.578-13.648,1.508-26.547,2.736-38.389
	H220.88c1.219,11.842,2.158,24.755,2.736,38.403c-15.188-0.104-29.392-0.88-41.708-2.163v8.199
	c12.353-1.296,26.62-2.073,41.862-2.167c0.361,9.544,0.551,19.432,0.551,29.563c0,26.728-1.31,51.75-3.585,73.213h13.508
	c-2.274-21.463-3.584-46.485-3.584-73.213c0-10.131,0.19-20.01,0.551-29.554C245.738,65.61,259.371,66.337,271.255,67.551z"/>
<polygon fill="#FFFFFF" points="381.686,289.655 243.21,177.488 368.755,289.655 "/>
<polygon fill="#FFFFFF" points="72.865,289.655 209.891,177.488 85.669,289.655 "/>
<g>
	<path fill="#FFFFFF" d="M19.649,436.311c-3.171-2.783-4.013-6.408-4.013-9.547c0-2.201,0.68-6.021,3.787-8.868
		c2.331-2.136,5.405-3.431,10.227-3.431c2.007,0,3.204,0.13,4.693,0.324c1.23,0.161,2.266,0.453,3.236,0.55
		c0.356,0.032,0.485,0.194,0.485,0.389c0,0.259-0.097,0.646-0.162,1.779c-0.065,1.068-0.032,2.849-0.097,3.496
		c-0.032,0.485-0.097,0.744-0.388,0.744c-0.259,0-0.324-0.259-0.324-0.712c-0.032-1.004-0.453-2.137-1.262-2.978
		c-1.068-1.133-3.592-2.007-6.57-2.007c-2.816,0-4.661,0.712-6.084,2.007c-2.363,2.168-2.978,5.243-2.978,8.382
		c0,7.703,5.858,11.521,10.195,11.521c2.88,0,4.628-0.323,5.922-1.812c0.55-0.614,0.971-1.553,1.101-2.136
		c0.097-0.518,0.162-0.647,0.42-0.647c0.227,0,0.292,0.227,0.292,0.485c0,0.389-0.388,3.204-0.712,4.305
		c-0.162,0.55-0.292,0.712-0.842,0.938c-1.294,0.518-3.754,0.744-5.825,0.744C26.316,439.838,22.594,438.867,19.649,436.311z"/>
	<path fill="#FFFFFF" d="M116.672,425.21c0.097,0,0.194-0.064,0.194-0.227v-0.68c0-4.919,0-5.825-0.064-6.861
		c-0.065-1.101-0.324-1.618-1.392-1.845c-0.259-0.064-0.809-0.097-1.262-0.097c-0.356,0-0.55-0.065-0.55-0.292
		s0.227-0.291,0.68-0.291c1.748,0,3.786,0.098,4.66,0.098c0.777,0,2.816-0.098,4.078-0.098c0.453,0,0.679,0.064,0.679,0.291
		s-0.194,0.292-0.583,0.292c-0.259,0-0.55,0.032-0.938,0.097c-0.874,0.162-1.133,0.712-1.197,1.845
		c-0.065,1.036-0.065,1.942-0.065,6.861V430c0,2.978,0,5.534,0.162,6.926c0.097,0.906,0.291,1.618,1.262,1.747
		c0.453,0.065,1.165,0.13,1.65,0.13c0.356,0,0.518,0.097,0.518,0.259c0,0.227-0.259,0.323-0.647,0.323
		c-2.104,0-4.143-0.097-5.049-0.097c-0.745,0-2.783,0.097-4.045,0.097c-0.453,0-0.68-0.097-0.68-0.323
		c0-0.162,0.129-0.259,0.518-0.259c0.486,0,0.874-0.064,1.166-0.13c0.647-0.129,0.809-0.841,0.938-1.779
		c0.162-1.359,0.162-3.916,0.162-6.894v-2.849c0-0.129-0.097-0.194-0.194-0.194h-12.363c-0.097,0-0.194,0.033-0.194,0.194V430
		c0,2.978,0,5.534,0.162,6.926c0.097,0.906,0.291,1.618,1.262,1.747c0.453,0.065,1.165,0.13,1.65,0.13
		c0.356,0,0.518,0.097,0.518,0.259c0,0.227-0.259,0.323-0.647,0.323c-2.104,0-4.143-0.097-5.049-0.097
		c-0.744,0-2.783,0.097-4.078,0.097c-0.421,0-0.647-0.097-0.647-0.323c0-0.162,0.129-0.259,0.518-0.259
		c0.486,0,0.874-0.064,1.166-0.13c0.647-0.129,0.809-0.841,0.938-1.779c0.162-1.359,0.162-3.916,0.162-6.894v-5.696
		c0-4.919,0-5.825-0.064-6.861c-0.065-1.101-0.324-1.618-1.392-1.845c-0.259-0.064-0.809-0.097-1.262-0.097
		c-0.356,0-0.55-0.065-0.55-0.292s0.227-0.291,0.68-0.291c1.748,0,3.787,0.098,4.66,0.098c0.777,0,2.816-0.098,4.078-0.098
		c0.453,0,0.679,0.064,0.679,0.291s-0.194,0.292-0.583,0.292c-0.259,0-0.55,0.032-0.938,0.097c-0.874,0.162-1.133,0.712-1.197,1.845
		c-0.065,1.036-0.065,1.942-0.065,6.861v0.68c0,0.162,0.097,0.227,0.194,0.227H116.672z"/>
	<path fill="#FFFFFF" d="M185.15,424.304c0-4.919,0-5.825-0.065-6.861c-0.064-1.101-0.323-1.618-1.392-1.845
		c-0.259-0.064-0.809-0.097-1.262-0.097c-0.356,0-0.55-0.065-0.55-0.292s0.227-0.291,0.712-0.291c1.715,0,3.754,0.098,4.725,0.098
		c0.777,0,2.815-0.098,3.98-0.098c0.486,0,0.712,0.064,0.712,0.291s-0.194,0.292-0.518,0.292c-0.356,0-0.55,0.032-0.938,0.097
		c-0.874,0.162-1.133,0.712-1.197,1.845c-0.065,1.036-0.065,1.942-0.065,6.861v4.531c0,4.692,0.938,6.667,2.524,7.961
		c1.457,1.197,2.945,1.327,4.045,1.327c1.424,0,3.172-0.453,4.466-1.748c1.78-1.779,1.877-4.692,1.877-8.026v-4.045
		c0-4.919,0-5.825-0.064-6.861c-0.065-1.101-0.324-1.618-1.392-1.845c-0.259-0.064-0.809-0.097-1.166-0.097
		c-0.356,0-0.55-0.065-0.55-0.292s0.227-0.291,0.68-0.291c1.65,0,3.689,0.098,3.722,0.098c0.388,0,2.427-0.098,3.689-0.098
		c0.453,0,0.68,0.064,0.68,0.291s-0.194,0.292-0.583,0.292c-0.356,0-0.55,0.032-0.938,0.097c-0.874,0.162-1.133,0.712-1.198,1.845
		c-0.064,1.036-0.064,1.942-0.064,6.861v3.463c0,3.593-0.356,7.411-3.075,9.741c-2.298,1.975-4.628,2.33-6.732,2.33
		c-1.715,0-4.822-0.097-7.185-2.232c-1.65-1.489-2.88-3.884-2.88-8.577V424.304z"/>
	<path fill="#FFFFFF" d="M269.13,424.304c0-4.919,0-5.825-0.064-6.861c-0.064-1.101-0.324-1.618-1.392-1.845
		c-0.259-0.064-0.81-0.097-1.263-0.097c-0.355,0-0.55-0.065-0.55-0.292s0.227-0.291,0.712-0.291c1.715,0,3.754,0.098,4.434,0.098
		c1.101,0,3.561-0.098,4.563-0.098c2.039,0,4.207,0.194,5.955,1.392c0.906,0.615,2.2,2.266,2.2,4.434
		c0,2.396-1.003,4.596-4.271,7.25c2.88,3.625,5.113,6.505,7.022,8.512c1.812,1.877,3.14,2.104,3.625,2.2
		c0.356,0.065,0.647,0.098,0.906,0.098s0.389,0.097,0.389,0.259c0,0.259-0.227,0.323-0.615,0.323h-3.074
		c-1.812,0-2.622-0.161-3.463-0.614c-1.392-0.744-2.622-2.266-4.435-4.758c-1.294-1.78-2.783-3.98-3.203-4.466
		c-0.162-0.194-0.356-0.227-0.583-0.227l-2.815-0.065c-0.162,0-0.259,0.065-0.259,0.26v0.452c0,3.011,0,5.567,0.161,6.927
		c0.098,0.938,0.292,1.65,1.263,1.779c0.485,0.065,1.197,0.13,1.586,0.13c0.259,0,0.388,0.097,0.388,0.259
		c0,0.227-0.227,0.323-0.646,0.323c-1.878,0-4.272-0.097-4.758-0.097c-0.615,0-2.654,0.097-3.948,0.097
		c-0.421,0-0.647-0.097-0.647-0.323c0-0.162,0.13-0.259,0.518-0.259c0.485,0,0.874-0.064,1.165-0.13
		c0.647-0.129,0.81-0.841,0.938-1.779c0.162-1.359,0.162-3.916,0.162-6.894V424.304z M272.949,426.86
		c0,0.356,0.064,0.485,0.291,0.583c0.68,0.227,1.65,0.323,2.46,0.323c1.294,0,1.715-0.13,2.298-0.55
		c0.971-0.713,1.909-2.201,1.909-4.855c0-4.596-3.042-5.922-4.952-5.922c-0.809,0-1.392,0.032-1.715,0.129
		c-0.227,0.065-0.291,0.194-0.291,0.453V426.86z"/>
	<path fill="#FFFFFF" d="M348.903,436.311c-3.172-2.783-4.013-6.408-4.013-9.547c0-2.201,0.68-6.021,3.786-8.868
		c2.33-2.136,5.405-3.431,10.228-3.431c2.006,0,3.204,0.13,4.692,0.324c1.229,0.161,2.266,0.453,3.236,0.55
		c0.356,0.032,0.485,0.194,0.485,0.389c0,0.259-0.097,0.646-0.162,1.779c-0.064,1.068-0.032,2.849-0.097,3.496
		c-0.032,0.485-0.097,0.744-0.389,0.744c-0.259,0-0.323-0.259-0.323-0.712c-0.032-1.004-0.453-2.137-1.263-2.978
		c-1.067-1.133-3.592-2.007-6.569-2.007c-2.815,0-4.66,0.712-6.085,2.007c-2.362,2.168-2.977,5.243-2.977,8.382
		c0,7.703,5.857,11.521,10.194,11.521c2.88,0,4.628-0.323,5.923-1.812c0.55-0.614,0.971-1.553,1.1-2.136
		c0.098-0.518,0.162-0.647,0.421-0.647c0.227,0,0.291,0.227,0.291,0.485c0,0.389-0.388,3.204-0.712,4.305
		c-0.161,0.55-0.291,0.712-0.841,0.938c-1.295,0.518-3.755,0.744-5.826,0.744C355.57,439.838,351.849,438.867,348.903,436.311z"/>
	<path fill="#FFFFFF" d="M445.927,425.21c0.098,0,0.194-0.064,0.194-0.227v-0.68c0-4.919,0-5.825-0.064-6.861
		c-0.065-1.101-0.324-1.618-1.392-1.845c-0.259-0.064-0.81-0.097-1.263-0.097c-0.355,0-0.55-0.065-0.55-0.292
		s0.227-0.291,0.68-0.291c1.747,0,3.786,0.098,4.66,0.098c0.776,0,2.815-0.098,4.078-0.098c0.453,0,0.68,0.064,0.68,0.291
		s-0.194,0.292-0.583,0.292c-0.259,0-0.55,0.032-0.938,0.097c-0.874,0.162-1.133,0.712-1.197,1.845
		c-0.064,1.036-0.064,1.942-0.064,6.861V430c0,2.978,0,5.534,0.161,6.926c0.098,0.906,0.292,1.618,1.263,1.747
		c0.453,0.065,1.165,0.13,1.65,0.13c0.356,0,0.518,0.097,0.518,0.259c0,0.227-0.259,0.323-0.647,0.323
		c-2.104,0-4.143-0.097-5.049-0.097c-0.744,0-2.783,0.097-4.045,0.097c-0.453,0-0.68-0.097-0.68-0.323
		c0-0.162,0.13-0.259,0.518-0.259c0.485,0,0.874-0.064,1.165-0.13c0.647-0.129,0.81-0.841,0.938-1.779
		c0.162-1.359,0.162-3.916,0.162-6.894v-2.849c0-0.129-0.097-0.194-0.194-0.194h-12.363c-0.097,0-0.193,0.033-0.193,0.194V430
		c0,2.978,0,5.534,0.161,6.926c0.098,0.906,0.292,1.618,1.263,1.747c0.453,0.065,1.165,0.13,1.65,0.13
		c0.356,0,0.518,0.097,0.518,0.259c0,0.227-0.259,0.323-0.647,0.323c-2.104,0-4.143-0.097-5.048-0.097
		c-0.745,0-2.784,0.097-4.078,0.097c-0.421,0-0.647-0.097-0.647-0.323c0-0.162,0.13-0.259,0.518-0.259
		c0.485,0,0.874-0.064,1.165-0.13c0.647-0.129,0.81-0.841,0.938-1.779c0.162-1.359,0.162-3.916,0.162-6.894v-5.696
		c0-4.919,0-5.825-0.064-6.861c-0.065-1.101-0.324-1.618-1.392-1.845c-0.259-0.064-0.81-0.097-1.263-0.097
		c-0.355,0-0.55-0.065-0.55-0.292s0.227-0.291,0.68-0.291c1.747,0,3.786,0.098,4.66,0.098c0.776,0,2.815-0.098,4.078-0.098
		c0.453,0,0.68,0.064,0.68,0.291s-0.194,0.292-0.583,0.292c-0.259,0-0.55,0.032-0.938,0.097c-0.874,0.162-1.133,0.712-1.197,1.845
		c-0.064,1.036-0.064,1.942-0.064,6.861v0.68c0,0.162,0.097,0.227,0.193,0.227H445.927z"/>
</g>
</svg>
